# xmcd CD database file
#
# Track frame offsets:
#	150
#	13374
#	33353
#	58234
#	67334
#	87302
#	93469
#	128282
#	138369
#	158858
#	166601
#	186460
#	194708
#	249316
#
# Disc length: 3498 seconds
#
# Revision: 0
# Processed by: cddbd v1.5.1PL0 Copyright (c) Steve Scherf et al.
# Submitted via: CDex 1.51
#
DISCID=c60da80e
DTITLE=Mothboy - The Fears
DYEAR=2004
DGENRE=Dub
TTITLE0=We Don't Ride With Vampyres
TTITLE1=X In His Territory
TTITLE2=Stuck In a Moment
TTITLE3=Second Spin R.I.P.
TTITLE4=A303
TTITLE5=Archives On Fire
TTITLE6=Spiders
TTITLE7=Folk
TTITLE8=All the Wrong Places
TTITLE9=Rewind, Erase and Replace
TTITLE10=Becoming Solar
TTITLE11=Fear Baby Fear
TTITLE12=Shakes
TTITLE13=Video Tracks: Come On Baby, Musick Box
EXTD=YEAR: 2004
EXTT0=
EXTT1=
EXTT2=
EXTT3=
EXTT4=
EXTT5=
EXTT6=
EXTT7=
EXTT8=
EXTT9=
EXTT10=
EXTT11=
EXTT12=
EXTT13=
PLAYORDER=
